<svg width="108" height="35" viewBox="0 0 108 35" fill="none" xmlns="http://www.w3.org/2000/svg">
<mask id="path-1-inside-1_0_1" fill="white">
<path d="M42.1257 27.0079C42.7853 25.9055 44.2743 23.315 44.9529 21.7717L46.0838 24.5276L49.1937 27.8346L52.5864 30.315L56.5445 33.0709L62.4817 34.1732H70.6806V31.1417V28.3858L67.5707 27.8346H64.4607H63.3298L61.0681 27.0079L57.9581 25.9055L56.2618 24.5276L54.2827 21.7717L53.4346 21.2205L52.5864 19.5669V18.189V15.9843L53.4346 13.2283L54.2827 10.748L57.9581 6.88976L63.3298 5.7874H68.7016L73.5079 6.88976L77.7487 9.37008L79.445 10.748L81.1414 14.8819V18.189V21.7717H83.4031H85.9476H89.0576V20.3937V18.189L89.623 14.8819L88.2094 12.126L86.7958 9.37008L85.9476 7.99213L83.4031 5.7874L78.5969 3.0315L73.5079 0.826772L67.5707 0H63.3298L59.9372 0.826772L56.5445 1.92913L54.2827 3.0315L51.1728 4.68504L49.1937 6.88976L47.2147 7.99213L46.0838 10.748L44.3874 15.9843H42.1257H38.733H35.3403H31.0995H27.9895H24.3141H22.3351H20.0733V21.7717H22.3351H26.0105H33.9267L33.0785 23.4252L29.6859 26.4567L27.9895 27.8346L24.3141 28.3858H20.6387L18.9424 27.8346L15.267 26.4567L12.7225 25.0787L10.178 23.4252L9.32984 21.2205L8.7644 18.7402V14.8819L11.3089 10.748L14.7016 7.99213L20.0733 5.7874H26.0105L31.0995 7.99213L33.9267 10.748H37.8848H41.2775H43.5393V9.37008L42.1257 6.88976L40.4293 5.7874L35.3403 1.92913L31.0995 0.826772L28.8377 0H24.3141H20.0733L14.7016 0.826772L10.178 1.92913L5.37173 4.68504L2.26178 9.37008L0 14.8819V19.5669L2.82722 25.9055L5.37173 28.937L7.63351 31.1417L14.7016 34.1732L21.4869 35L29.6859 34.1732L33.0785 33.0709L38.733 30.315L42.1257 27.0079Z"/>
<path d="M72.9424 32.2441V34.1732H75.7696V31.1417V28.3858V25.9055H77.7487V27.8346V31.1417L79.445 34.1732H83.4031H88.2094H90.7539V30.315L92.4503 33.0709L94.9948 34.4488L98.1047 35L101.78 34.4488L103.194 31.1417H100.649L99.5183 31.9685L98.1047 32.2441L96.4084 31.9685L94.1466 31.1417V29.7638H96.4084H99.5183H102.346H104.042L103.194 28.3858V26.4567L102.346 25.0787L100.649 23.7008L97.2565 23.4252L94.1466 24.5276L92.4503 25.9055L90.7539 27.0079V24.5276L89.623 23.7008H89.0576H86.7958V24.5276V27.0079V28.937V31.1417L85.9476 32.2441L82.8377 31.9685L81.1414 30.315V28.3858V26.4567V23.7008H80.2932H79.445H77.7487H75.7696L76.9005 22.5984L78.5969 21.7717L77.7487 21.2205L78.5969 20.3937H76.9005H74.9215H73.5079L72.9424 21.7717L72.377 23.7008L70.6806 23.4252V25.9055H72.9424V29.7638V32.2441Z"/>
<path d="M105.173 25.0787V21.2205H108V23.7008V28.3858V31.1417V34.1732H105.173V31.9685V28.937V25.0787Z"/>
</mask>
<path d="M42.1257 27.0079C42.7853 25.9055 44.2743 23.315 44.9529 21.7717L46.0838 24.5276L49.1937 27.8346L52.5864 30.315L56.5445 33.0709L62.4817 34.1732H70.6806V31.1417V28.3858L67.5707 27.8346H64.4607H63.3298L61.0681 27.0079L57.9581 25.9055L56.2618 24.5276L54.2827 21.7717L53.4346 21.2205L52.5864 19.5669V18.189V15.9843L53.4346 13.2283L54.2827 10.748L57.9581 6.88976L63.3298 5.7874H68.7016L73.5079 6.88976L77.7487 9.37008L79.445 10.748L81.1414 14.8819V18.189V21.7717H83.4031H85.9476H89.0576V20.3937V18.189L89.623 14.8819L88.2094 12.126L86.7958 9.37008L85.9476 7.99213L83.4031 5.7874L78.5969 3.0315L73.5079 0.826772L67.5707 0H63.3298L59.9372 0.826772L56.5445 1.92913L54.2827 3.0315L51.1728 4.68504L49.1937 6.88976L47.2147 7.99213L46.0838 10.748L44.3874 15.9843H42.1257H38.733H35.3403H31.0995H27.9895H24.3141H22.3351H20.0733V21.7717H22.3351H26.0105H33.9267L33.0785 23.4252L29.6859 26.4567L27.9895 27.8346L24.3141 28.3858H20.6387L18.9424 27.8346L15.267 26.4567L12.7225 25.0787L10.178 23.4252L9.32984 21.2205L8.7644 18.7402V14.8819L11.3089 10.748L14.7016 7.99213L20.0733 5.7874H26.0105L31.0995 7.99213L33.9267 10.748H37.8848H41.2775H43.5393V9.37008L42.1257 6.88976L40.4293 5.7874L35.3403 1.92913L31.0995 0.826772L28.8377 0H24.3141H20.0733L14.7016 0.826772L10.178 1.92913L5.37173 4.68504L2.26178 9.37008L0 14.8819V19.5669L2.82722 25.9055L5.37173 28.937L7.63351 31.1417L14.7016 34.1732L21.4869 35L29.6859 34.1732L33.0785 33.0709L38.733 30.315L42.1257 27.0079Z" fill="#4C8DD9"/>
<path d="M72.9424 32.2441V34.1732H75.7696V31.1417V28.3858V25.9055H77.7487V27.8346V31.1417L79.445 34.1732H83.4031H88.2094H90.7539V30.315L92.4503 33.0709L94.9948 34.4488L98.1047 35L101.78 34.4488L103.194 31.1417H100.649L99.5183 31.9685L98.1047 32.2441L96.4084 31.9685L94.1466 31.1417V29.7638H96.4084H99.5183H102.346H104.042L103.194 28.3858V26.4567L102.346 25.0787L100.649 23.7008L97.2565 23.4252L94.1466 24.5276L92.4503 25.9055L90.7539 27.0079V24.5276L89.623 23.7008H89.0576H86.7958V24.5276V27.0079V28.937V31.1417L85.9476 32.2441L82.8377 31.9685L81.1414 30.315V28.3858V26.4567V23.7008H80.2932H79.445H77.7487H75.7696L76.9005 22.5984L78.5969 21.7717L77.7487 21.2205L78.5969 20.3937H76.9005H74.9215H73.5079L72.9424 21.7717L72.377 23.7008L70.6806 23.4252V25.9055H72.9424V29.7638V32.2441Z" fill="#4C8DD9"/>
<path d="M105.173 25.0787V21.2205H108V23.7008V28.3858V31.1417V34.1732H105.173V31.9685V28.937V25.0787Z" fill="#4C8DD9"/>
<path d="M42.1257 27.0079C42.7853 25.9055 44.2743 23.315 44.9529 21.7717L46.0838 24.5276L49.1937 27.8346L52.5864 30.315L56.5445 33.0709L62.4817 34.1732H70.6806V31.1417V28.3858L67.5707 27.8346H64.4607H63.3298L61.0681 27.0079L57.9581 25.9055L56.2618 24.5276L54.2827 21.7717L53.4346 21.2205L52.5864 19.5669V18.189V15.9843L53.4346 13.2283L54.2827 10.748L57.9581 6.88976L63.3298 5.7874H68.7016L73.5079 6.88976L77.7487 9.37008L79.445 10.748L81.1414 14.8819V18.189V21.7717H83.4031H85.9476H89.0576V20.3937V18.189L89.623 14.8819L88.2094 12.126L86.7958 9.37008L85.9476 7.99213L83.4031 5.7874L78.5969 3.0315L73.5079 0.826772L67.5707 0H63.3298L59.9372 0.826772L56.5445 1.92913L54.2827 3.0315L51.1728 4.68504L49.1937 6.88976L47.2147 7.99213L46.0838 10.748L44.3874 15.9843H42.1257H38.733H35.3403H31.0995H27.9895H24.3141H22.3351H20.0733V21.7717H22.3351H26.0105H33.9267L33.0785 23.4252L29.6859 26.4567L27.9895 27.8346L24.3141 28.3858H20.6387L18.9424 27.8346L15.267 26.4567L12.7225 25.0787L10.178 23.4252L9.32984 21.2205L8.7644 18.7402V14.8819L11.3089 10.748L14.7016 7.99213L20.0733 5.7874H26.0105L31.0995 7.99213L33.9267 10.748H37.8848H41.2775H43.5393V9.37008L42.1257 6.88976L40.4293 5.7874L35.3403 1.92913L31.0995 0.826772L28.8377 0H24.3141H20.0733L14.7016 0.826772L10.178 1.92913L5.37173 4.68504L2.26178 9.37008L0 14.8819V19.5669L2.82722 25.9055L5.37173 28.937L7.63351 31.1417L14.7016 34.1732L21.4869 35L29.6859 34.1732L33.0785 33.0709L38.733 30.315L42.1257 27.0079Z" stroke="#131111" stroke-opacity="0.25" stroke-width="2" mask="url(#path-1-inside-1_0_1)"/>
<path d="M72.9424 32.2441V34.1732H75.7696V31.1417V28.3858V25.9055H77.7487V27.8346V31.1417L79.445 34.1732H83.4031H88.2094H90.7539V30.315L92.4503 33.0709L94.9948 34.4488L98.1047 35L101.78 34.4488L103.194 31.1417H100.649L99.5183 31.9685L98.1047 32.2441L96.4084 31.9685L94.1466 31.1417V29.7638H96.4084H99.5183H102.346H104.042L103.194 28.3858V26.4567L102.346 25.0787L100.649 23.7008L97.2565 23.4252L94.1466 24.5276L92.4503 25.9055L90.7539 27.0079V24.5276L89.623 23.7008H89.0576H86.7958V24.5276V27.0079V28.937V31.1417L85.9476 32.2441L82.8377 31.9685L81.1414 30.315V28.3858V26.4567V23.7008H80.2932H79.445H77.7487H75.7696L76.9005 22.5984L78.5969 21.7717L77.7487 21.2205L78.5969 20.3937H76.9005H74.9215H73.5079L72.9424 21.7717L72.377 23.7008L70.6806 23.4252V25.9055H72.9424V29.7638V32.2441Z" stroke="#131111" stroke-opacity="0.25" stroke-width="2" mask="url(#path-1-inside-1_0_1)"/>
<path d="M105.173 25.0787V21.2205H108V23.7008V28.3858V31.1417V34.1732H105.173V31.9685V28.937V25.0787Z" stroke="#131111" stroke-opacity="0.25" stroke-width="2" mask="url(#path-1-inside-1_0_1)"/>
</svg>
